<svg xmlns="http://www.w3.org/2000/svg" viewBox="0 0 1450 262" height="262" width="1450"><g fill="none" fill-rule="evenodd"><g fill-rule="nonzero"><path d="M0 0h262v262H0z" fill="#FB651E"></path><path d="M122.2 148.1L77.2 64h20.6l26.4 53.3 1.4 3c.6 1 1 2 1.5 3.1l.6 1.1.4 1a67.2 67.2 0 0 1 3.2 7.5 615.7 615.7 0 0 1 7.6-15.7L165.7 64h19.1l-45.3 85.3v54.3h-17.3V148z" fill="#FFF"></path></g><path d="M432.7 183h-27v-46.1h-39.9V183h-27V78.3h27v38.3h39.9V78.3h27V183zm73.1-20.6v-16.5l-11.1 1.2c-4 .5-7 1-9 1.7a13 13 0 0 0-5.9 3.5 8.8 8.8 0 0 0-2 6c0 1.7.2 3 .4 4 .3 1 1 2 2.1 3s2.4 1.6 4 2a26.9 26.9 0 0 0 14.6-.8 24 24 0 0 0 6.9-4.1zm0 12.2l-5 3.8a35.9 35.9 0 0 1-22.2 6.8c-7.6 0-13.9-2.4-19-7a23 23 0 0 1-7.5-17.8 24 24 0 0 1 3.8-14.2 26 26 0 0 1 11-8.6 62 62 0 0 1 17.5-4.5c6.9-1 14-1.6 21.5-2v-.4c0-4.4-1.7-7.4-5.3-9a38.6 38.6 0 0 0-15.8-2.5 45 45 0 0 0-13.3 2.2c-4.8 1.4-8.1 2.6-10.2 3.4H459v-19a150.5 150.5 0 0 1 31.1-4c14.4 0 24.8 2.2 31.2 6.6 6.4 4.5 9.6 11.4 9.6 20.9V183h-25.1v-8.4zm89.5 10.5a68 68 0 0 1-18.9-2.5 41.6 41.6 0 0 1-14.8-7.5 34.4 34.4 0 0 1-9.7-13 45 45 0 0 1-3.5-18.3c0-7.3 1.2-13.7 3.7-19a36 36 0 0 1 10.3-13.3 42 42 0 0 1 14.8-7.3 64.7 64.7 0 0 1 45 4v21.6h-3.6l-3.6-3a32 32 0 0 0-19.4-6.9c-6.8 0-12 2.2-15.6 6.5a26.2 26.2 0 0 0-5.4 17.4c0 7.6 1.8 13.4 5.6 17.3 3.7 4 9 6 15.8 6a31.5 31.5 0 0 0 15-3.7 75.8 75.8 0 0 0 7.6-6h3.6V179a58.4 58.4 0 0 1-26.9 6.1zm127.4-2.1h-29.5l-22.1-34.4-6.9 8.4v26H639V73.6h25.3v65.3l27.3-34.9h29.2l-28.4 34 30.4 45zm90.6-34.8h-58c.4 6.2 2.8 11 7.1 14.2 4.3 3.3 10.7 5 19.2 5a48.7 48.7 0 0 0 27.4-9l2.8-.2v20.4a84.4 84.4 0 0 1-33 6.5c-15.8 0-28-3.6-36.4-10.7a37.6 37.6 0 0 1-12.7-30.4c0-13 4-23.4 12-31 8-7.6 19-11.4 32.9-11.4 12.8 0 22.5 3.2 29 9.7 6.4 6.5 9.7 15.8 9.7 28v8.9zM788 133.4c-.1-5.3-1.5-9.3-4-12-2.4-2.7-6.3-4-11.5-4-5 0-9 1.3-12 3.8-3.2 2.5-5 6.6-5.3 12.2H788zm100.3-5.2H886c-1-.4-2.8-.7-5.2-.9a78.9 78.9 0 0 0-15.5.4c-2.8.5-5.8 1.3-9 2.4V183H831v-79h25.3v11.6c5.6-4.7 10.5-8 14.6-9.5a32.2 32.2 0 0 1 17.4-2v24zm160.1 54.8h-26L978 111.1V183h-24.8V78.3h32.3l38.2 60v-60h24.7V183zm103.1-34.8h-58c.5 6.2 2.8 11 7.1 14.2 4.4 3.3 10.8 5 19.2 5a48.7 48.7 0 0 0 27.4-9l2.8-.2v20.4a84.4 84.4 0 0 1-33 6.5c-15.8 0-28-3.6-36.4-10.7A37.6 37.6 0 0 1 1068 144c0-13 4-23.4 12-31 8-7.6 19-11.4 32.8-11.4 12.9 0 22.5 3.2 29 9.7 6.5 6.5 9.7 15.8 9.7 28v8.9zm-25.2-14.8c-.1-5.3-1.4-9.3-3.9-12-2.5-2.7-6.3-4-11.6-4-4.9 0-8.9 1.3-12 3.8-3.2 2.5-5 6.6-5.3 12.2h32.8zm169-29.4l-24.5 79H1244l-16.1-53.2-15.8 53.2h-27.3l-24.2-79h26.6l13.5 54.5 16.8-54.5h22.5l16 54.5 13.3-54.5h26zm83.7 54c0 8.1-3.6 14.7-11 19.7a52 52 0 0 1-30 7.5 85.7 85.7 0 0 1-32.8-6.3V158h2.3c1.2 1 2.7 1.9 4.4 3a58.3 58.3 0 0 0 26.7 7.3c5 0 8.6-.5 11-1.6 2.4-1.1 3.6-2.8 3.6-5 0-1.9-.7-3.3-2.1-4.1-1.4-.9-4.1-1.7-8-2.5l-7.7-1.4a82 82 0 0 1-8.7-1.8 31 31 0 0 1-16-8.7c-3.5-4-5.2-9-5.2-14.8 0-7.6 3.6-14 10.8-19a51 51 0 0 1 29.5-7.5 78.6 78.6 0 0 1 29.7 5.6v20h-2.2a51.5 51.5 0 0 0-27.4-8.8c-4.1 0-7.6.6-10.3 1.7-2.8 1.1-4.2 2.7-4.2 4.8 0 1.9.6 3.3 1.9 4.3 1.2 1 4.2 2 8.9 3l8.3 1.5c3 .4 6 1 9 1.8a28.2 28.2 0 0 1 14.8 8.2c3.2 3.7 4.7 8.4 4.7 14z" fill="#FB651E"></path></g></svg>
