<svg width="512" height="512" viewBox="0 0 512 512" fill="none" xmlns="http://www.w3.org/2000/svg">
<path d="M432 0H80C35.8172 0 0 35.8172 0 80V432C0 476.183 35.8172 512 80 512H432C476.183 512 512 476.183 512 432V80C512 35.8172 476.183 0 432 0Z" fill="white"/>
<path d="M468.5 194.018C399.991 193.613 261.517 235.487 255.697 406.214C319.154 408.033 450.554 368.14 468.5 194.018Z" fill="url(#paint0_radial)" fill-opacity="0.66"/>
<path d="M43.5 194.018C112.009 193.613 250.483 235.487 256.303 406.214C192.846 408.033 61.4458 368.14 43.5 194.018Z" fill="url(#paint1_radial)" fill-opacity="0.66"/>
<path d="M151.617 126.114C214.374 153.597 323.864 248.149 259.774 406.498C201.058 382.361 97.2247 292.494 151.617 126.114Z" fill="url(#paint2_linear)" fill-opacity="0.6"/>
<path d="M364.031 126.114C301.274 153.597 191.784 248.149 255.874 406.498C314.59 382.361 418.423 292.494 364.031 126.114Z" fill="url(#paint3_linear)" fill-opacity="0.6"/>
<path d="M255.428 105.5C304.157 153.658 372.463 281.182 255.856 406.02C209.699 362.436 144.994 241.313 255.428 105.5Z" fill="url(#paint4_linear)" fill-opacity="0.6"/>
<defs>
<radialGradient id="paint0_radial" cx="0" cy="0" r="1" gradientUnits="userSpaceOnUse" gradientTransform="translate(256 300.144) rotate(90) scale(106.129 212.5)">
<stop stop-color="#E43BE8" stop-opacity="0.66"/>
<stop offset="1" stop-color="#FF7AD2" stop-opacity="0.77"/>
</radialGradient>
<radialGradient id="paint1_radial" cx="0" cy="0" r="1" gradientUnits="userSpaceOnUse" gradientTransform="translate(256 300.144) rotate(90) scale(106.129 212.5)">
<stop stop-color="#E43BE8" stop-opacity="0.66"/>
<stop offset="1" stop-color="#FF7AD2" stop-opacity="0.77"/>
</radialGradient>
<linearGradient id="paint2_linear" x1="257.824" y1="105.5" x2="257.824" y2="406.497" gradientUnits="userSpaceOnUse">
<stop stop-color="#5300A6" stop-opacity="0.77"/>
<stop stop-color="#E43BE8" stop-opacity="0.6"/>
<stop offset="0.0001" stop-color="#E43BE8" stop-opacity="0.55"/>
<stop offset="1" stop-color="#5300A6" stop-opacity="0.77"/>
</linearGradient>
<linearGradient id="paint3_linear" x1="257.824" y1="105.5" x2="257.824" y2="406.497" gradientUnits="userSpaceOnUse">
<stop stop-color="#5300A6" stop-opacity="0.77"/>
<stop stop-color="#E43BE8" stop-opacity="0.6"/>
<stop offset="0.0001" stop-color="#E43BE8" stop-opacity="0.55"/>
<stop offset="1" stop-color="#5300A6" stop-opacity="0.77"/>
</linearGradient>
<linearGradient id="paint4_linear" x1="257.824" y1="105.5" x2="257.824" y2="406.497" gradientUnits="userSpaceOnUse">
<stop stop-color="#5300A6" stop-opacity="0.77"/>
<stop stop-color="#E43BE8" stop-opacity="0.6"/>
<stop offset="0.0001" stop-color="#E43BE8" stop-opacity="0.55"/>
<stop offset="1" stop-color="#5300A6" stop-opacity="0.77"/>
</linearGradient>
</defs>
</svg>
