<svg width="1024" height="1024" viewBox="0 0 1024 1024" fill="none" xmlns="http://www.w3.org/2000/svg">
<rect width="1024" height="1024" fill="white"/>
<path d="M762 262.014C762 262.014 571 252.764 420.5 459.014C305 617.264 262 762.014 262 762.014L310.5 737.014C346.5 674.514 365.25 648.764 400.5 612.014C463.75 630.514 529.75 628.264 587 562.014C537 548.014 497 551.264 438 557.264C504.25 512.014 549.5 502.014 612 512.014L637 462.014C592 453.514 562 452.764 517.5 463.014C566.75 428.264 601 408.764 662 412.014L692.25 363.764C653.25 361.014 629.75 365.264 585 376.264C625.25 339.764 662 323.264 715.5 320.014C715.5 320.014 741.75 272.764 762 262.014Z" fill="black"/>
</svg>
