<svg width="1024" height="1024" viewBox="0 0 1024 1024" fill="none" xmlns="http://www.w3.org/2000/svg">
<rect width="1024" height="1024" fill="white"/>
<path d="M754.746 719.25L719.246 754.75C714.562 759.406 708.225 762.02 701.621 762.02C695.016 762.02 688.68 759.406 683.996 754.75L386.996 458.25C378.866 460.605 370.459 461.866 361.996 462C346.078 461.989 330.393 458.178 316.245 450.884C302.097 443.59 289.895 433.025 280.652 420.066C271.41 407.107 265.394 392.128 263.106 376.376C260.817 360.624 262.322 344.553 267.496 329.5L330.996 393L344.246 379.75L379.746 344.25L392.996 331L329.496 267.5C344.549 262.327 360.62 260.822 376.372 263.11C392.124 265.398 407.102 271.414 420.061 280.657C433.02 289.899 443.586 302.102 450.88 316.25C458.173 330.398 461.984 346.083 461.996 362C461.862 370.463 460.601 378.87 458.246 387L754.746 684C759.402 688.684 762.016 695.02 762.016 701.625C762.016 708.23 759.402 714.566 754.746 719.25ZM269.246 684C264.589 688.684 261.976 695.02 261.976 701.625C261.976 708.23 264.589 714.566 269.246 719.25L304.746 754.75C309.43 759.406 315.766 762.02 322.371 762.02C328.975 762.02 335.312 759.406 339.996 754.75L476.746 618.25L405.996 547.5L269.246 684ZM711.996 262L611.996 312V362L557.746 416.25L607.746 466.25L661.996 412H711.996L761.996 312L711.996 262Z" fill="#B7B7B7"/>
</svg>
