<svg width="1024" height="1024" viewBox="0 0 1024 1024" fill="none" xmlns="http://www.w3.org/2000/svg">
<rect width="1024" height="1024" fill="white"/>
<rect width="1024" height="1024" fill="url(#paint0_linear)"/>
<path d="M754.745 719.25L719.245 754.75C714.561 759.406 708.225 762.02 701.62 762.02C695.016 762.02 688.679 759.406 683.995 754.75L386.995 458.25C378.866 460.605 370.458 461.866 361.995 462C346.078 461.989 330.393 458.178 316.245 450.884C302.097 443.59 289.895 433.025 280.652 420.066C271.409 407.107 265.394 392.128 263.106 376.376C260.817 360.624 262.322 344.553 267.495 329.5L330.995 393L344.245 379.75L379.745 344.25L392.995 331L329.495 267.5C344.549 262.327 360.62 260.822 376.372 263.11C392.124 265.398 407.102 271.414 420.061 280.657C433.02 289.899 443.586 302.102 450.879 316.25C458.173 330.398 461.984 346.083 461.995 362C461.862 370.463 460.601 378.87 458.245 387L754.745 684C759.402 688.684 762.015 695.02 762.015 701.625C762.015 708.23 759.402 714.566 754.745 719.25ZM269.245 684C264.589 688.684 261.976 695.02 261.976 701.625C261.976 708.23 264.589 714.566 269.245 719.25L304.745 754.75C309.429 759.406 315.766 762.02 322.37 762.02C328.975 762.02 335.311 759.406 339.995 754.75L476.745 618.25L405.995 547.5L269.245 684ZM711.995 262L611.995 312V362L557.745 416.25L607.745 466.25L661.995 412H711.995L761.995 312L711.995 262Z" fill="white"/>
<defs>
<linearGradient id="paint0_linear" x1="483.312" y1="-948.147" x2="-1206.24" y2="622.384" gradientUnits="userSpaceOnUse">
<stop stop-color="#FFE889"/>
<stop offset="0.992557" stop-color="#FF7100"/>
<stop offset="1" stop-color="#34B4A2"/>
</linearGradient>
</defs>
</svg>
