<svg width="1440" height="900" viewBox="0 0 1440 900" fill="none" xmlns="http://www.w3.org/2000/svg">
<rect width="1440" height="900" fill="white"/>
<rect x="23.5" y="373.5" width="229" height="151" rx="7.5" fill="white" stroke="black"/>
<path d="M99.5479 458H97.1919V449.785H88.2319V458H85.8882V440.227H88.2319V447.868H97.1919V440.227H99.5479V458ZM115.625 442.155H109.912V458H107.58V442.155H101.879V440.227H115.625V442.155ZM130.737 442.155H125.024V458H122.692V442.155H116.992V440.227H130.737V442.155ZM135.717 451.042V458H133.374V440.227H139.929C141.874 440.227 143.396 440.723 144.494 441.716C145.601 442.709 146.154 444.023 146.154 445.659C146.154 447.384 145.613 448.715 144.531 449.65C143.457 450.578 141.914 451.042 139.904 451.042H135.717ZM135.717 449.125H139.929C141.182 449.125 142.142 448.833 142.81 448.247C143.477 447.653 143.811 446.798 143.811 445.683C143.811 444.625 143.477 443.779 142.81 443.144C142.142 442.509 141.227 442.18 140.063 442.155H135.717V449.125ZM165.161 453.361H157.714L156.042 458H153.625L160.412 440.227H162.463L169.262 458H166.857L165.161 453.361ZM158.422 451.433H164.465L161.438 443.12L158.422 451.433ZM173.999 451.042V458H171.655V440.227H178.21C180.155 440.227 181.677 440.723 182.775 441.716C183.882 442.709 184.436 444.023 184.436 445.659C184.436 447.384 183.894 448.715 182.812 449.65C181.738 450.578 180.196 451.042 178.186 451.042H173.999ZM173.999 449.125H178.21C179.463 449.125 180.424 448.833 181.091 448.247C181.758 447.653 182.092 446.798 182.092 445.683C182.092 444.625 181.758 443.779 181.091 443.144C180.424 442.509 179.508 442.18 178.344 442.155H173.999V449.125ZM189.941 458H187.597V440.227H189.941V458Z" fill="black"/>
<rect x="411.5" y="373.5" width="229" height="151" rx="7.5" fill="white" stroke="black"/>
<path d="M486.193 392.078C484.183 391.5 482.718 390.792 481.798 389.954C480.887 389.107 480.431 388.066 480.431 386.829C480.431 385.429 480.989 384.273 482.104 383.362C483.227 382.442 484.683 381.982 486.474 381.982C487.694 381.982 488.781 382.218 489.733 382.69C490.693 383.162 491.434 383.813 491.955 384.644C492.484 385.474 492.748 386.381 492.748 387.366H490.392C490.392 386.292 490.05 385.449 489.367 384.839C488.683 384.22 487.719 383.911 486.474 383.911C485.318 383.911 484.415 384.167 483.764 384.68C483.121 385.185 482.799 385.889 482.799 386.792C482.799 387.516 483.104 388.131 483.715 388.635C484.333 389.132 485.379 389.587 486.852 390.002C488.333 390.417 489.489 390.877 490.319 391.382C491.157 391.878 491.776 392.46 492.174 393.127C492.581 393.795 492.785 394.58 492.785 395.483C492.785 396.924 492.223 398.079 491.1 398.95C489.977 399.813 488.476 400.244 486.596 400.244C485.375 400.244 484.236 400.012 483.178 399.548C482.12 399.076 481.302 398.433 480.724 397.62C480.154 396.806 479.87 395.882 479.87 394.849H482.226C482.226 395.923 482.62 396.773 483.41 397.4C484.207 398.018 485.269 398.328 486.596 398.328C487.833 398.328 488.781 398.075 489.44 397.571C490.099 397.066 490.429 396.379 490.429 395.508C490.429 394.637 490.124 393.966 489.513 393.494C488.903 393.014 487.796 392.542 486.193 392.078ZM500.927 400.244C499.136 400.244 497.68 399.658 496.557 398.486C495.434 397.306 494.872 395.732 494.872 393.762V393.347C494.872 392.037 495.12 390.869 495.617 389.844C496.121 388.81 496.821 388.005 497.716 387.427C498.62 386.841 499.596 386.548 500.646 386.548C502.363 386.548 503.698 387.113 504.65 388.245C505.602 389.376 506.078 390.995 506.078 393.103V394.043H497.13C497.163 395.345 497.541 396.399 498.266 397.205C498.998 398.002 499.926 398.401 501.049 398.401C501.846 398.401 502.522 398.238 503.075 397.913C503.629 397.587 504.113 397.156 504.528 396.619L505.907 397.693C504.8 399.394 503.14 400.244 500.927 400.244ZM500.646 388.403C499.735 388.403 498.97 388.737 498.351 389.404C497.733 390.063 497.35 390.991 497.204 392.188H503.82V392.017C503.755 390.869 503.445 389.982 502.892 389.355C502.339 388.721 501.59 388.403 500.646 388.403ZM515.087 388.818C514.745 388.761 514.375 388.733 513.976 388.733C512.495 388.733 511.49 389.364 510.961 390.625V400H508.703V386.792H510.9L510.937 388.318C511.677 387.138 512.727 386.548 514.086 386.548C514.525 386.548 514.859 386.605 515.087 386.719V388.818ZM521.752 396.936L525.023 386.792H527.331L522.594 400H520.873L516.088 386.792H518.395L521.752 396.936ZM531.957 400H529.699V386.792H531.957V400ZM529.516 383.289C529.516 382.922 529.625 382.613 529.845 382.361C530.073 382.109 530.407 381.982 530.846 381.982C531.286 381.982 531.619 382.109 531.847 382.361C532.075 382.613 532.189 382.922 532.189 383.289C532.189 383.655 532.075 383.96 531.847 384.204C531.619 384.448 531.286 384.57 530.846 384.57C530.407 384.57 530.073 384.448 529.845 384.204C529.625 383.96 529.516 383.655 529.516 383.289ZM540.88 398.401C541.686 398.401 542.39 398.157 542.992 397.668C543.594 397.18 543.928 396.57 543.993 395.837H546.129C546.089 396.594 545.828 397.314 545.348 397.998C544.868 398.682 544.225 399.227 543.419 399.634C542.622 400.041 541.776 400.244 540.88 400.244C539.082 400.244 537.65 399.646 536.583 398.45C535.526 397.245 534.997 395.601 534.997 393.518V393.14C534.997 391.854 535.233 390.71 535.705 389.709C536.177 388.708 536.852 387.931 537.731 387.378C538.618 386.825 539.664 386.548 540.868 386.548C542.349 386.548 543.578 386.991 544.555 387.878C545.539 388.765 546.064 389.917 546.129 391.333H543.993C543.928 390.479 543.603 389.779 543.017 389.233C542.439 388.68 541.723 388.403 540.868 388.403C539.721 388.403 538.83 388.818 538.195 389.648C537.568 390.47 537.255 391.663 537.255 393.225V393.652C537.255 395.174 537.568 396.346 538.195 397.168C538.821 397.99 539.717 398.401 540.88 398.401ZM554.149 400.244C552.359 400.244 550.902 399.658 549.779 398.486C548.656 397.306 548.095 395.732 548.095 393.762V393.347C548.095 392.037 548.343 390.869 548.839 389.844C549.344 388.81 550.044 388.005 550.939 387.427C551.842 386.841 552.819 386.548 553.869 386.548C555.586 386.548 556.92 387.113 557.873 388.245C558.825 389.376 559.301 390.995 559.301 393.103V394.043H550.353C550.386 395.345 550.764 396.399 551.488 397.205C552.221 398.002 553.148 398.401 554.271 398.401C555.069 398.401 555.744 398.238 556.298 397.913C556.851 397.587 557.335 397.156 557.75 396.619L559.13 397.693C558.023 399.394 556.363 400.244 554.149 400.244ZM553.869 388.403C552.957 388.403 552.192 388.737 551.574 389.404C550.955 390.063 550.573 390.991 550.426 392.188H557.042V392.017C556.977 390.869 556.668 389.982 556.115 389.355C555.561 388.721 554.813 388.403 553.869 388.403ZM569.616 396.497C569.616 395.886 569.384 395.414 568.92 395.081C568.464 394.739 567.663 394.446 566.515 394.202C565.376 393.958 564.468 393.665 563.793 393.323C563.126 392.981 562.629 392.574 562.304 392.102C561.986 391.63 561.828 391.069 561.828 390.417C561.828 389.335 562.283 388.42 563.195 387.671C564.114 386.922 565.286 386.548 566.71 386.548C568.208 386.548 569.42 386.934 570.348 387.708C571.284 388.481 571.752 389.469 571.752 390.674H569.481C569.481 390.055 569.217 389.522 568.688 389.075C568.167 388.627 567.508 388.403 566.71 388.403C565.889 388.403 565.246 388.582 564.782 388.94C564.318 389.299 564.086 389.766 564.086 390.344C564.086 390.889 564.302 391.3 564.733 391.577C565.164 391.854 565.941 392.118 567.064 392.371C568.196 392.623 569.111 392.924 569.811 393.274C570.511 393.624 571.028 394.047 571.361 394.543C571.703 395.032 571.874 395.63 571.874 396.338C571.874 397.518 571.402 398.466 570.458 399.182C569.514 399.89 568.289 400.244 566.784 400.244C565.726 400.244 564.79 400.057 563.976 399.683C563.162 399.308 562.523 398.787 562.06 398.12C561.604 397.445 561.376 396.716 561.376 395.935H563.634C563.675 396.692 563.976 397.294 564.538 397.742C565.107 398.181 565.856 398.401 566.784 398.401C567.638 398.401 568.322 398.23 568.834 397.888C569.355 397.538 569.616 397.074 569.616 396.497ZM485.79 421.786C485.79 419.946 486.034 418.181 486.522 416.488C487.019 414.795 487.755 413.257 488.732 411.874C489.708 410.49 490.722 409.514 491.771 408.944L492.235 410.433C491.047 411.345 490.071 412.736 489.306 414.608C488.549 416.48 488.134 418.575 488.061 420.895L488.048 421.932C488.048 425.073 488.622 427.8 489.77 430.111C490.461 431.494 491.283 432.577 492.235 433.358L491.771 434.737C490.689 434.135 489.656 433.126 488.671 431.71C486.75 428.943 485.79 425.635 485.79 421.786ZM499.291 420.736L497.118 422.994V429H494.774V411.227H497.118V420.016L505.016 411.227H507.848L500.854 419.076L508.397 429H505.59L499.291 420.736ZM515.258 429.244C513.467 429.244 512.011 428.658 510.888 427.486C509.765 426.306 509.203 424.732 509.203 422.762V422.347C509.203 421.037 509.451 419.869 509.948 418.844C510.452 417.81 511.152 417.005 512.047 416.427C512.951 415.841 513.927 415.548 514.977 415.548C516.694 415.548 518.029 416.113 518.981 417.245C519.933 418.376 520.409 419.995 520.409 422.103V423.043H511.461C511.494 424.345 511.872 425.399 512.597 426.205C513.329 427.002 514.257 427.401 515.38 427.401C516.177 427.401 516.853 427.238 517.406 426.913C517.96 426.587 518.444 426.156 518.859 425.619L520.238 426.693C519.132 428.394 517.471 429.244 515.258 429.244ZM514.977 417.403C514.066 417.403 513.301 417.737 512.682 418.404C512.064 419.063 511.681 419.991 511.535 421.188H518.151V421.017C518.086 419.869 517.777 418.982 517.223 418.355C516.67 417.721 515.921 417.403 514.977 417.403ZM529.418 417.818C529.076 417.761 528.706 417.733 528.307 417.733C526.826 417.733 525.821 418.364 525.292 419.625V429H523.034V415.792H525.231L525.268 417.318C526.008 416.138 527.058 415.548 528.417 415.548C528.856 415.548 529.19 415.605 529.418 415.719V417.818ZM533.642 415.792L533.715 417.452C534.724 416.183 536.042 415.548 537.67 415.548C540.461 415.548 541.869 417.123 541.894 420.272V429H539.635V420.26C539.627 419.308 539.407 418.604 538.976 418.148C538.553 417.692 537.89 417.464 536.986 417.464C536.254 417.464 535.611 417.66 535.058 418.05C534.504 418.441 534.073 418.954 533.764 419.588V429H531.505V415.792H533.642ZM550.78 429.244C548.99 429.244 547.533 428.658 546.41 427.486C545.287 426.306 544.726 424.732 544.726 422.762V422.347C544.726 421.037 544.974 419.869 545.47 418.844C545.975 417.81 546.675 417.005 547.57 416.427C548.473 415.841 549.45 415.548 550.5 415.548C552.217 415.548 553.551 416.113 554.503 417.245C555.456 418.376 555.932 419.995 555.932 422.103V423.043H546.984C547.016 424.345 547.395 425.399 548.119 426.205C548.852 427.002 549.779 427.401 550.902 427.401C551.7 427.401 552.375 427.238 552.929 426.913C553.482 426.587 553.966 426.156 554.381 425.619L555.761 426.693C554.654 428.394 552.994 429.244 550.78 429.244ZM550.5 417.403C549.588 417.403 548.823 417.737 548.205 418.404C547.586 419.063 547.204 419.991 547.057 421.188H553.673V421.017C553.608 419.869 553.299 418.982 552.746 418.355C552.192 417.721 551.444 417.403 550.5 417.403ZM561.01 429H558.751V410.25H561.01V429ZM564.562 432.54L563.28 431.661C564.045 430.595 564.444 429.496 564.477 428.365V426.327H566.686V428.097C566.686 428.919 566.483 429.741 566.076 430.562C565.677 431.384 565.172 432.044 564.562 432.54ZM509.35 450.151H501.891V458H499.547V440.227H510.558V442.155H501.891V448.234H509.35V450.151ZM515.465 458H513.207V444.792H515.465V458ZM513.024 441.289C513.024 440.922 513.134 440.613 513.354 440.361C513.581 440.109 513.915 439.982 514.354 439.982C514.794 439.982 515.128 440.109 515.355 440.361C515.583 440.613 515.697 440.922 515.697 441.289C515.697 441.655 515.583 441.96 515.355 442.204C515.128 442.448 514.794 442.57 514.354 442.57C513.915 442.57 513.581 442.448 513.354 442.204C513.134 441.96 513.024 441.655 513.024 441.289ZM521.544 458H519.286V439.25H521.544V458ZM530.651 458.244C528.861 458.244 527.404 457.658 526.281 456.486C525.158 455.306 524.596 453.732 524.596 451.762V451.347C524.596 450.037 524.844 448.869 525.341 447.844C525.845 446.81 526.545 446.005 527.44 445.427C528.344 444.841 529.32 444.548 530.37 444.548C532.087 444.548 533.422 445.113 534.374 446.245C535.326 447.376 535.802 448.995 535.802 451.103V452.043H526.854C526.887 453.345 527.265 454.399 527.99 455.205C528.722 456.002 529.65 456.401 530.773 456.401C531.57 456.401 532.246 456.238 532.799 455.913C533.353 455.587 533.837 455.156 534.252 454.619L535.631 455.693C534.525 457.394 532.864 458.244 530.651 458.244ZM530.37 446.403C529.459 446.403 528.694 446.737 528.075 447.404C527.457 448.063 527.074 448.991 526.928 450.188H533.544V450.017C533.479 448.869 533.17 447.982 532.616 447.355C532.063 446.721 531.314 446.403 530.37 446.403ZM546.117 454.497C546.117 453.886 545.885 453.414 545.421 453.081C544.966 452.739 544.164 452.446 543.017 452.202C541.877 451.958 540.97 451.665 540.294 451.323C539.627 450.981 539.131 450.574 538.805 450.102C538.488 449.63 538.329 449.069 538.329 448.417C538.329 447.335 538.785 446.42 539.696 445.671C540.616 444.922 541.788 444.548 543.212 444.548C544.709 444.548 545.922 444.934 546.85 445.708C547.785 446.481 548.253 447.469 548.253 448.674H545.983C545.983 448.055 545.718 447.522 545.189 447.075C544.669 446.627 544.009 446.403 543.212 446.403C542.39 446.403 541.747 446.582 541.283 446.94C540.819 447.299 540.587 447.766 540.587 448.344C540.587 448.889 540.803 449.3 541.234 449.577C541.666 449.854 542.443 450.118 543.566 450.371C544.697 450.623 545.613 450.924 546.312 451.274C547.012 451.624 547.529 452.047 547.863 452.543C548.205 453.032 548.375 453.63 548.375 454.338C548.375 455.518 547.903 456.466 546.959 457.182C546.015 457.89 544.791 458.244 543.285 458.244C542.227 458.244 541.291 458.057 540.478 457.683C539.664 457.308 539.025 456.787 538.561 456.12C538.105 455.445 537.877 454.716 537.877 453.935H540.136C540.176 454.692 540.478 455.294 541.039 455.742C541.609 456.181 542.357 456.401 543.285 456.401C544.14 456.401 544.823 456.23 545.336 455.888C545.857 455.538 546.117 455.074 546.117 454.497ZM551.244 461.54L549.962 460.661C550.727 459.595 551.126 458.496 551.159 457.365V455.327H553.368V457.097C553.368 457.919 553.165 458.741 552.758 459.562C552.359 460.384 551.854 461.044 551.244 461.54ZM497.606 487H495.263V469.227H497.606V487ZM503.686 473.792L503.759 475.452C504.768 474.183 506.086 473.548 507.714 473.548C510.505 473.548 511.913 475.123 511.938 478.272V487H509.679V478.26C509.671 477.308 509.451 476.604 509.02 476.148C508.597 475.692 507.934 475.464 507.03 475.464C506.298 475.464 505.655 475.66 505.102 476.05C504.548 476.441 504.117 476.954 503.808 477.588V487H501.549V473.792H503.686ZM526.525 480.542C526.525 482.561 526.061 484.184 525.133 485.413C524.206 486.634 522.96 487.244 521.398 487.244C519.73 487.244 518.44 486.654 517.528 485.474L517.418 487H515.343V468.25H517.602V475.245C518.513 474.113 519.77 473.548 521.374 473.548C522.977 473.548 524.234 474.154 525.146 475.367C526.065 476.579 526.525 478.239 526.525 480.347V480.542ZM524.267 480.286C524.267 478.748 523.97 477.56 523.375 476.722C522.781 475.883 521.927 475.464 520.812 475.464C519.323 475.464 518.253 476.156 517.602 477.54V483.252C518.293 484.636 519.372 485.328 520.836 485.328C521.919 485.328 522.761 484.909 523.363 484.07C523.965 483.232 524.267 481.971 524.267 480.286ZM528.783 480.274C528.783 478.98 529.035 477.816 529.54 476.783C530.053 475.749 530.761 474.952 531.664 474.39C532.576 473.829 533.613 473.548 534.777 473.548C536.575 473.548 538.028 474.17 539.135 475.416C540.25 476.661 540.807 478.317 540.807 480.384V480.542C540.807 481.828 540.559 482.984 540.062 484.009C539.574 485.027 538.87 485.82 537.951 486.39C537.039 486.959 535.989 487.244 534.801 487.244C533.011 487.244 531.558 486.622 530.443 485.376C529.337 484.131 528.783 482.483 528.783 480.433V480.274ZM531.054 480.542C531.054 482.007 531.391 483.183 532.067 484.07C532.75 484.957 533.662 485.401 534.801 485.401C535.949 485.401 536.86 484.953 537.536 484.058C538.211 483.155 538.549 481.893 538.549 480.274C538.549 478.825 538.203 477.653 537.511 476.758C536.828 475.855 535.916 475.403 534.777 475.403C533.662 475.403 532.763 475.847 532.079 476.734C531.396 477.621 531.054 478.89 531.054 480.542ZM547.802 478.614L550.731 473.792H553.368L549.047 480.323L553.502 487H550.89L547.838 482.056L544.787 487H542.162L546.618 480.323L542.296 473.792H544.909L547.802 478.614ZM555.7 490.54L554.418 489.661C555.183 488.595 555.582 487.496 555.614 486.365V484.327H557.824V486.097C557.824 486.919 557.62 487.741 557.213 488.562C556.815 489.384 556.31 490.044 555.7 490.54ZM510.229 514.816C510.229 514.425 510.342 514.1 510.57 513.839C510.806 513.579 511.156 513.449 511.62 513.449C512.084 513.449 512.434 513.579 512.67 513.839C512.914 514.1 513.036 514.425 513.036 514.816C513.036 515.19 512.914 515.504 512.67 515.756C512.434 516.008 512.084 516.134 511.62 516.134C511.156 516.134 510.806 516.008 510.57 515.756C510.342 515.504 510.229 515.19 510.229 514.816ZM516.82 514.816C516.82 514.425 516.934 514.1 517.162 513.839C517.398 513.579 517.748 513.449 518.212 513.449C518.676 513.449 519.026 513.579 519.262 513.839C519.506 514.1 519.628 514.425 519.628 514.816C519.628 515.19 519.506 515.504 519.262 515.756C519.026 516.008 518.676 516.134 518.212 516.134C517.748 516.134 517.398 516.008 517.162 515.756C516.934 515.504 516.82 515.19 516.82 514.816ZM523.412 514.816C523.412 514.425 523.526 514.1 523.754 513.839C523.99 513.579 524.34 513.449 524.804 513.449C525.268 513.449 525.618 513.579 525.854 513.839C526.098 514.1 526.22 514.425 526.22 514.816C526.22 515.19 526.098 515.504 525.854 515.756C525.618 516.008 525.268 516.134 524.804 516.134C524.34 516.134 523.99 516.008 523.754 515.756C523.526 515.504 523.412 515.19 523.412 514.816ZM530.004 514.816C530.004 514.425 530.118 514.1 530.346 513.839C530.582 513.579 530.932 513.449 531.396 513.449C531.859 513.449 532.209 513.579 532.445 513.839C532.689 514.1 532.812 514.425 532.812 514.816C532.812 515.19 532.689 515.504 532.445 515.756C532.209 516.008 531.859 516.134 531.396 516.134C530.932 516.134 530.582 516.008 530.346 515.756C530.118 515.504 530.004 515.19 530.004 514.816ZM541.759 508.908C541.759 510.722 541.519 512.464 541.039 514.132C540.567 515.792 539.839 517.326 538.854 518.734C537.877 520.142 536.852 521.143 535.778 521.737L535.302 520.358C536.555 519.398 537.56 517.908 538.317 515.89C539.082 513.864 539.472 511.618 539.489 509.152V508.761C539.489 507.052 539.31 505.465 538.952 504C538.594 502.528 538.093 501.209 537.45 500.045C536.815 498.882 536.099 497.974 535.302 497.323L535.778 495.944C536.852 496.538 537.873 497.531 538.842 498.922C539.818 500.314 540.547 501.848 541.027 503.524C541.515 505.201 541.759 506.995 541.759 508.908Z" fill="black"/>
<rect x="799.5" y="373.5" width="229" height="151" rx="7.5" fill="white" stroke="black"/>
<path d="M859.672 442.81H855.498V450H853.142V432.227H859.025C861.027 432.227 862.565 432.682 863.64 433.594C864.722 434.505 865.263 435.832 865.263 437.573C865.263 438.68 864.962 439.644 864.36 440.466C863.766 441.288 862.936 441.903 861.87 442.31L866.044 449.854V450H863.53L859.672 442.81ZM855.498 440.894H859.099C860.262 440.894 861.186 440.592 861.87 439.99C862.561 439.388 862.907 438.582 862.907 437.573C862.907 436.475 862.578 435.632 861.918 435.046C861.267 434.46 860.323 434.163 859.086 434.155H855.498V440.894ZM873.686 450.244C871.896 450.244 870.439 449.658 869.316 448.486C868.193 447.306 867.631 445.732 867.631 443.762V443.347C867.631 442.037 867.88 440.869 868.376 439.844C868.881 438.81 869.58 438.005 870.476 437.427C871.379 436.841 872.355 436.548 873.405 436.548C875.122 436.548 876.457 437.113 877.409 438.245C878.361 439.376 878.837 440.995 878.837 443.103V444.043H869.89C869.922 445.345 870.301 446.399 871.025 447.205C871.757 448.002 872.685 448.401 873.808 448.401C874.606 448.401 875.281 448.238 875.834 447.913C876.388 447.587 876.872 447.156 877.287 446.619L878.667 447.693C877.56 449.394 875.9 450.244 873.686 450.244ZM873.405 438.403C872.494 438.403 871.729 438.737 871.11 439.404C870.492 440.063 870.109 440.991 869.963 442.188H876.579V442.017C876.514 440.869 876.205 439.982 875.651 439.355C875.098 438.721 874.349 438.403 873.405 438.403ZM892.619 443.542C892.619 445.553 892.159 447.172 891.24 448.401C890.32 449.63 889.075 450.244 887.504 450.244C885.901 450.244 884.64 449.736 883.72 448.718V455.078H881.462V436.792H883.525L883.635 438.257C884.554 437.118 885.832 436.548 887.468 436.548C889.055 436.548 890.308 437.146 891.228 438.342C892.155 439.539 892.619 441.203 892.619 443.335V443.542ZM890.361 443.286C890.361 441.797 890.043 440.621 889.409 439.758C888.774 438.896 887.903 438.464 886.796 438.464C885.429 438.464 884.404 439.071 883.72 440.283V446.594C884.396 447.799 885.429 448.401 886.821 448.401C887.903 448.401 888.762 447.974 889.396 447.119C890.039 446.257 890.361 444.979 890.361 443.286ZM894.902 443.274C894.902 441.98 895.154 440.816 895.659 439.783C896.171 438.749 896.879 437.952 897.783 437.39C898.694 436.829 899.732 436.548 900.896 436.548C902.694 436.548 904.147 437.17 905.253 438.416C906.368 439.661 906.926 441.317 906.926 443.384V443.542C906.926 444.828 906.678 445.984 906.181 447.009C905.693 448.027 904.989 448.82 904.069 449.39C903.158 449.959 902.108 450.244 900.92 450.244C899.13 450.244 897.677 449.622 896.562 448.376C895.455 447.131 894.902 445.483 894.902 443.433V443.274ZM897.172 443.542C897.172 445.007 897.51 446.183 898.186 447.07C898.869 447.957 899.781 448.401 900.92 448.401C902.067 448.401 902.979 447.953 903.654 447.058C904.33 446.155 904.667 444.893 904.667 443.274C904.667 441.825 904.322 440.653 903.63 439.758C902.946 438.855 902.035 438.403 900.896 438.403C899.781 438.403 898.881 438.847 898.198 439.734C897.514 440.621 897.172 441.89 897.172 443.542ZM917.448 446.497C917.448 445.886 917.216 445.414 916.752 445.081C916.297 444.739 915.495 444.446 914.348 444.202C913.208 443.958 912.301 443.665 911.625 443.323C910.958 442.981 910.462 442.574 910.136 442.102C909.819 441.63 909.66 441.069 909.66 440.417C909.66 439.335 910.116 438.42 911.027 437.671C911.947 436.922 913.119 436.548 914.543 436.548C916.04 436.548 917.253 436.934 918.181 437.708C919.117 438.481 919.584 439.469 919.584 440.674H917.314C917.314 440.055 917.049 439.522 916.521 439.075C916 438.627 915.34 438.403 914.543 438.403C913.721 438.403 913.078 438.582 912.614 438.94C912.15 439.299 911.918 439.766 911.918 440.344C911.918 440.889 912.134 441.3 912.565 441.577C912.997 441.854 913.774 442.118 914.897 442.371C916.028 442.623 916.944 442.924 917.644 443.274C918.343 443.624 918.86 444.047 919.194 444.543C919.536 445.032 919.707 445.63 919.707 446.338C919.707 447.518 919.235 448.466 918.291 449.182C917.347 449.89 916.122 450.244 914.616 450.244C913.558 450.244 912.622 450.057 911.809 449.683C910.995 449.308 910.356 448.787 909.892 448.12C909.436 447.445 909.208 446.716 909.208 445.935H911.467C911.507 446.692 911.809 447.294 912.37 447.742C912.94 448.181 913.688 448.401 914.616 448.401C915.471 448.401 916.154 448.23 916.667 447.888C917.188 447.538 917.448 447.074 917.448 446.497ZM925.102 450H922.844V436.792H925.102V450ZM922.661 433.289C922.661 432.922 922.771 432.613 922.99 432.361C923.218 432.109 923.552 431.982 923.991 431.982C924.431 431.982 924.764 432.109 924.992 432.361C925.22 432.613 925.334 432.922 925.334 433.289C925.334 433.655 925.22 433.96 924.992 434.204C924.764 434.448 924.431 434.57 923.991 434.57C923.552 434.57 923.218 434.448 922.99 434.204C922.771 433.96 922.661 433.655 922.661 433.289ZM931.792 433.594V436.792H934.257V438.538H931.792V446.729C931.792 447.257 931.901 447.656 932.121 447.925C932.341 448.185 932.715 448.315 933.244 448.315C933.505 448.315 933.863 448.267 934.318 448.169V450C933.724 450.163 933.146 450.244 932.585 450.244C931.576 450.244 930.815 449.939 930.302 449.329C929.79 448.718 929.533 447.852 929.533 446.729V438.538H927.128V436.792H929.533V433.594H931.792ZM936.064 443.274C936.064 441.98 936.316 440.816 936.821 439.783C937.333 438.749 938.042 437.952 938.945 437.39C939.856 436.829 940.894 436.548 942.058 436.548C943.856 436.548 945.309 437.17 946.416 438.416C947.53 439.661 948.088 441.317 948.088 443.384V443.542C948.088 444.828 947.84 445.984 947.343 447.009C946.855 448.027 946.151 448.82 945.231 449.39C944.32 449.959 943.27 450.244 942.082 450.244C940.292 450.244 938.839 449.622 937.724 448.376C936.617 447.131 936.064 445.483 936.064 443.433V443.274ZM938.334 443.542C938.334 445.007 938.672 446.183 939.348 447.07C940.031 447.957 940.943 448.401 942.082 448.401C943.229 448.401 944.141 447.953 944.816 447.058C945.492 446.155 945.83 444.893 945.83 443.274C945.83 441.825 945.484 440.653 944.792 439.758C944.108 438.855 943.197 438.403 942.058 438.403C940.943 438.403 940.043 438.847 939.36 439.734C938.676 440.621 938.334 441.89 938.334 443.542ZM957.304 438.818C956.962 438.761 956.592 438.733 956.193 438.733C954.712 438.733 953.707 439.364 953.178 440.625V450H950.92V436.792H953.117L953.154 438.318C953.894 437.138 954.944 436.548 956.303 436.548C956.743 436.548 957.076 436.605 957.304 436.719V438.818ZM961.845 450H959.587V436.792H961.845V450ZM959.404 433.289C959.404 432.922 959.514 432.613 959.733 432.361C959.961 432.109 960.295 431.982 960.734 431.982C961.174 431.982 961.507 432.109 961.735 432.361C961.963 432.613 962.077 432.922 962.077 433.289C962.077 433.655 961.963 433.96 961.735 434.204C961.507 434.448 961.174 434.57 960.734 434.57C960.295 434.57 959.961 434.448 959.733 434.204C959.514 433.96 959.404 433.655 959.404 433.289ZM970.952 450.244C969.161 450.244 967.705 449.658 966.582 448.486C965.458 447.306 964.897 445.732 964.897 443.762V443.347C964.897 442.037 965.145 440.869 965.642 439.844C966.146 438.81 966.846 438.005 967.741 437.427C968.645 436.841 969.621 436.548 970.671 436.548C972.388 436.548 973.723 437.113 974.675 438.245C975.627 439.376 976.103 440.995 976.103 443.103V444.043H967.155C967.188 445.345 967.566 446.399 968.291 447.205C969.023 448.002 969.951 448.401 971.074 448.401C971.871 448.401 972.547 448.238 973.1 447.913C973.653 447.587 974.138 447.156 974.553 446.619L975.932 447.693C974.825 449.394 973.165 450.244 970.952 450.244ZM970.671 438.403C969.759 438.403 968.994 438.737 968.376 439.404C967.757 440.063 967.375 440.991 967.229 442.188H973.845V442.017C973.78 440.869 973.47 439.982 972.917 439.355C972.364 438.721 971.615 438.403 970.671 438.403ZM986.418 446.497C986.418 445.886 986.186 445.414 985.722 445.081C985.266 444.739 984.465 444.446 983.317 444.202C982.178 443.958 981.271 443.665 980.595 443.323C979.928 442.981 979.431 442.574 979.106 442.102C978.789 441.63 978.63 441.069 978.63 440.417C978.63 439.335 979.086 438.42 979.997 437.671C980.917 436.922 982.089 436.548 983.513 436.548C985.01 436.548 986.223 436.934 987.15 437.708C988.086 438.481 988.554 439.469 988.554 440.674H986.284C986.284 440.055 986.019 439.522 985.49 439.075C984.969 438.627 984.31 438.403 983.513 438.403C982.691 438.403 982.048 438.582 981.584 438.94C981.12 439.299 980.888 439.766 980.888 440.344C980.888 440.889 981.104 441.3 981.535 441.577C981.966 441.854 982.744 442.118 983.867 442.371C984.998 442.623 985.913 442.924 986.613 443.274C987.313 443.624 987.83 444.047 988.164 444.543C988.505 445.032 988.676 445.63 988.676 446.338C988.676 447.518 988.204 448.466 987.26 449.182C986.316 449.89 985.091 450.244 983.586 450.244C982.528 450.244 981.592 450.057 980.778 449.683C979.965 449.308 979.326 448.787 978.862 448.12C978.406 447.445 978.178 446.716 978.178 445.935H980.437C980.477 446.692 980.778 447.294 981.34 447.742C981.91 448.181 982.658 448.401 983.586 448.401C984.44 448.401 985.124 448.23 985.637 447.888C986.158 447.538 986.418 447.074 986.418 446.497Z" fill="black"/>
<rect x="1187.5" y="374.5" width="229" height="151" rx="7.5" fill="white" stroke="black"/>
<path d="M1257.78 451V433.227H1262.8C1264.34 433.227 1265.71 433.568 1266.9 434.252C1268.09 434.936 1269 435.908 1269.65 437.169C1270.3 438.431 1270.63 439.879 1270.63 441.515V442.65C1270.63 444.327 1270.31 445.796 1269.66 447.057C1269.01 448.319 1268.09 449.287 1266.89 449.962C1265.69 450.638 1264.29 450.984 1262.7 451H1257.78ZM1260.12 435.155V449.083H1262.59C1264.4 449.083 1265.8 448.522 1266.8 447.399C1267.81 446.276 1268.31 444.677 1268.31 442.602V441.564C1268.31 439.546 1267.84 437.979 1266.89 436.864C1265.94 435.741 1264.6 435.172 1262.86 435.155H1260.12ZM1281.99 451C1281.86 450.74 1281.75 450.276 1281.67 449.608C1280.62 450.699 1279.37 451.244 1277.91 451.244C1276.61 451.244 1275.54 450.878 1274.7 450.146C1273.87 449.405 1273.45 448.469 1273.45 447.338C1273.45 445.963 1273.97 444.896 1275.02 444.14C1276.07 443.375 1277.54 442.992 1279.44 442.992H1281.63V441.955C1281.63 441.165 1281.4 440.539 1280.92 440.075C1280.45 439.603 1279.76 439.367 1278.84 439.367C1278.03 439.367 1277.36 439.57 1276.81 439.977C1276.27 440.384 1275.99 440.876 1275.99 441.454H1273.72C1273.72 440.795 1273.95 440.16 1274.42 439.55C1274.89 438.931 1275.52 438.443 1276.32 438.085C1277.13 437.727 1278.01 437.548 1278.97 437.548C1280.49 437.548 1281.69 437.93 1282.55 438.695C1283.41 439.452 1283.86 440.498 1283.89 441.833V447.912C1283.89 449.124 1284.05 450.089 1284.35 450.805V451H1281.99ZM1278.24 449.279C1278.95 449.279 1279.62 449.096 1280.25 448.729C1280.89 448.363 1281.35 447.887 1281.63 447.301V444.591H1279.86C1277.1 444.591 1275.71 445.401 1275.71 447.021C1275.71 447.729 1275.95 448.282 1276.42 448.681C1276.89 449.079 1277.5 449.279 1278.24 449.279ZM1290.49 434.594V437.792H1292.96V439.538H1290.49V447.729C1290.49 448.257 1290.6 448.656 1290.82 448.925C1291.04 449.185 1291.42 449.315 1291.95 449.315C1292.21 449.315 1292.57 449.267 1293.02 449.169V451C1292.43 451.163 1291.85 451.244 1291.29 451.244C1290.28 451.244 1289.52 450.939 1289.01 450.329C1288.49 449.718 1288.24 448.852 1288.24 447.729V439.538H1285.83V437.792H1288.24V434.594H1290.49ZM1303.76 451C1303.63 450.74 1303.53 450.276 1303.45 449.608C1302.4 450.699 1301.14 451.244 1299.69 451.244C1298.38 451.244 1297.31 450.878 1296.48 450.146C1295.65 449.405 1295.23 448.469 1295.23 447.338C1295.23 445.963 1295.75 444.896 1296.79 444.14C1297.84 443.375 1299.32 442.992 1301.21 442.992H1303.41V441.955C1303.41 441.165 1303.17 440.539 1302.7 440.075C1302.23 439.603 1301.53 439.367 1300.61 439.367C1299.81 439.367 1299.13 439.57 1298.59 439.977C1298.04 440.384 1297.77 440.876 1297.77 441.454H1295.5C1295.5 440.795 1295.73 440.16 1296.2 439.55C1296.67 438.931 1297.3 438.443 1298.1 438.085C1298.91 437.727 1299.79 437.548 1300.75 437.548C1302.27 437.548 1303.46 437.93 1304.33 438.695C1305.19 439.452 1305.64 440.498 1305.67 441.833V447.912C1305.67 449.124 1305.82 450.089 1306.13 450.805V451H1303.76ZM1300.02 449.279C1300.72 449.279 1301.4 449.096 1302.03 448.729C1302.67 448.363 1303.12 447.887 1303.41 447.301V444.591H1301.64C1298.87 444.591 1297.49 445.401 1297.49 447.021C1297.49 447.729 1297.73 448.282 1298.2 448.681C1298.67 449.079 1299.28 449.279 1300.02 449.279ZM1320.39 444.542C1320.39 446.561 1319.93 448.184 1319 449.413C1318.07 450.634 1316.83 451.244 1315.26 451.244C1313.59 451.244 1312.3 450.654 1311.39 449.474L1311.28 451H1309.21V432.25H1311.47V439.245C1312.38 438.113 1313.64 437.548 1315.24 437.548C1316.84 437.548 1318.1 438.154 1319.01 439.367C1319.93 440.579 1320.39 442.239 1320.39 444.347V444.542ZM1318.13 444.286C1318.13 442.748 1317.83 441.56 1317.24 440.722C1316.65 439.883 1315.79 439.464 1314.68 439.464C1313.19 439.464 1312.12 440.156 1311.47 441.54V447.252C1312.16 448.636 1313.24 449.328 1314.7 449.328C1315.78 449.328 1316.63 448.909 1317.23 448.07C1317.83 447.232 1318.13 445.971 1318.13 444.286ZM1331.4 451C1331.27 450.74 1331.16 450.276 1331.08 449.608C1330.03 450.699 1328.78 451.244 1327.32 451.244C1326.02 451.244 1324.95 450.878 1324.11 450.146C1323.28 449.405 1322.87 448.469 1322.87 447.338C1322.87 445.963 1323.39 444.896 1324.43 444.14C1325.48 443.375 1326.95 442.992 1328.85 442.992H1331.05V441.955C1331.05 441.165 1330.81 440.539 1330.34 440.075C1329.87 439.603 1329.17 439.367 1328.25 439.367C1327.45 439.367 1326.77 439.57 1326.22 439.977C1325.68 440.384 1325.41 440.876 1325.41 441.454H1323.14C1323.14 440.795 1323.37 440.16 1323.83 439.55C1324.3 438.931 1324.94 438.443 1325.74 438.085C1326.54 437.727 1327.42 437.548 1328.39 437.548C1329.91 437.548 1331.1 437.93 1331.96 438.695C1332.82 439.452 1333.27 440.498 1333.3 441.833V447.912C1333.3 449.124 1333.46 450.089 1333.77 450.805V451H1331.4ZM1327.65 449.279C1328.36 449.279 1329.03 449.096 1329.67 448.729C1330.3 448.363 1330.76 447.887 1331.05 447.301V444.591H1329.28C1326.51 444.591 1325.13 445.401 1325.13 447.021C1325.13 447.729 1325.36 448.282 1325.83 448.681C1326.31 449.079 1326.91 449.279 1327.65 449.279ZM1344.54 447.497C1344.54 446.886 1344.3 446.414 1343.84 446.081C1343.38 445.739 1342.58 445.446 1341.43 445.202C1340.3 444.958 1339.39 444.665 1338.71 444.323C1338.05 443.981 1337.55 443.574 1337.22 443.102C1336.91 442.63 1336.75 442.069 1336.75 441.417C1336.75 440.335 1337.2 439.42 1338.11 438.671C1339.03 437.922 1340.21 437.548 1341.63 437.548C1343.13 437.548 1344.34 437.934 1345.27 438.708C1346.2 439.481 1346.67 440.469 1346.67 441.674H1344.4C1344.4 441.055 1344.14 440.522 1343.61 440.075C1343.09 439.627 1342.43 439.403 1341.63 439.403C1340.81 439.403 1340.17 439.582 1339.7 439.94C1339.24 440.299 1339.01 440.766 1339.01 441.344C1339.01 441.889 1339.22 442.3 1339.65 442.577C1340.08 442.854 1340.86 443.118 1341.98 443.371C1343.12 443.623 1344.03 443.924 1344.73 444.274C1345.43 444.624 1345.95 445.047 1346.28 445.543C1346.62 446.032 1346.79 446.63 1346.79 447.338C1346.79 448.518 1346.32 449.466 1345.38 450.182C1344.43 450.89 1343.21 451.244 1341.7 451.244C1340.65 451.244 1339.71 451.057 1338.9 450.683C1338.08 450.308 1337.44 449.787 1336.98 449.12C1336.52 448.445 1336.3 447.716 1336.3 446.935H1338.55C1338.59 447.692 1338.9 448.294 1339.46 448.742C1340.03 449.181 1340.78 449.401 1341.7 449.401C1342.56 449.401 1343.24 449.23 1343.75 448.888C1344.27 448.538 1344.54 448.074 1344.54 447.497ZM1355.22 451.244C1353.43 451.244 1351.97 450.658 1350.85 449.486C1349.72 448.306 1349.16 446.732 1349.16 444.762V444.347C1349.16 443.037 1349.41 441.869 1349.91 440.844C1350.41 439.81 1351.11 439.005 1352.01 438.427C1352.91 437.841 1353.89 437.548 1354.94 437.548C1356.65 437.548 1357.99 438.113 1358.94 439.245C1359.89 440.376 1360.37 441.995 1360.37 444.103V445.043H1351.42C1351.45 446.345 1351.83 447.399 1352.56 448.205C1353.29 449.002 1354.22 449.401 1355.34 449.401C1356.14 449.401 1356.81 449.238 1357.36 448.913C1357.92 448.587 1358.4 448.156 1358.82 447.619L1360.2 448.693C1359.09 450.394 1357.43 451.244 1355.22 451.244ZM1354.94 439.403C1354.02 439.403 1353.26 439.737 1352.64 440.404C1352.02 441.063 1351.64 441.991 1351.49 443.188H1358.11V443.017C1358.04 441.869 1357.74 440.982 1357.18 440.355C1356.63 439.721 1355.88 439.403 1354.94 439.403Z" fill="black"/>
<path d="M411.574 450.707C411.965 450.317 411.965 449.683 411.574 449.293L405.21 442.929C404.82 442.538 404.186 442.538 403.796 442.929C403.405 443.319 403.405 443.953 403.796 444.343L409.453 450L403.796 455.657C403.405 456.047 403.405 456.681 403.796 457.071C404.186 457.462 404.82 457.462 405.21 457.071L411.574 450.707ZM253 451H410.867V449H253V451Z" fill="black"/>
<path d="M799.574 449.707C799.965 449.317 799.965 448.683 799.574 448.293L793.21 441.929C792.82 441.538 792.186 441.538 791.796 441.929C791.405 442.319 791.405 442.953 791.796 443.343L797.453 449L791.796 454.657C791.405 455.047 791.405 455.681 791.796 456.071C792.186 456.462 792.82 456.462 793.21 456.071L799.574 449.707ZM641 450H798.867V448H641V450Z" fill="black"/>
<path d="M1187.57 450.707C1187.96 450.317 1187.96 449.683 1187.57 449.293L1181.21 442.929C1180.82 442.538 1180.19 442.538 1179.8 442.929C1179.41 443.319 1179.41 443.953 1179.8 444.343L1185.45 450L1179.8 455.657C1179.41 456.047 1179.41 456.681 1179.8 457.071C1180.19 457.462 1180.82 457.462 1181.21 457.071L1187.57 450.707ZM1029 451H1186.87V449H1029V451Z" fill="black"/>
</svg>
